<svg xmlns="http://www.w3.org/2000/svg" viewBox="0 0 128 128" width="128" height="128">
  <defs>
    <linearGradient id="cpBg" x1="0" y1="0" x2="1" y2="1">
      <stop offset="0" stop-color="#1a0b2e"/>
      <stop offset="1" stop-color="#0d0221"/>
    </linearGradient>
  </defs>
  <rect x="4" y="4" width="120" height="120" rx="14" fill="url(#cpBg)"/>
  <path d="M4 92 L124 62" stroke="#ffe600" stroke-width="2" opacity="0.5"/>
  <path d="M18 4 L44 124" stroke="#00e5ff" stroke-width="1.5" opacity="0.35"/>
  <!-- Хроматическая аберрация: три сдвинутых канала (cyan/magenta/жёлтый акцент) -->
  <g fill="#00e5ff" opacity="0.85" transform="translate(-2,0)">
    <circle cx="64" cy="78" r="19"/>
    <circle cx="36" cy="52" r="10.5"/>
    <circle cx="60" cy="34" r="10.5"/>
    <circle cx="88" cy="40" r="10.5"/>
    <circle cx="94" cy="66" r="10.5"/>
  </g>
  <g fill="#ff2fd1" opacity="0.85" transform="translate(2,0)">
    <circle cx="64" cy="78" r="19"/>
    <circle cx="36" cy="52" r="10.5"/>
    <circle cx="60" cy="34" r="10.5"/>
    <circle cx="88" cy="40" r="10.5"/>
    <circle cx="94" cy="66" r="10.5"/>
  </g>
  <g fill="#f5f5f7">
    <circle cx="64" cy="78" r="19"/>
    <circle cx="36" cy="52" r="10.5"/>
    <circle cx="60" cy="34" r="10.5"/>
    <circle cx="88" cy="40" r="10.5"/>
    <circle cx="94" cy="66" r="10.5"/>
  </g>
  <rect x="4" y="4" width="120" height="120" rx="14" fill="none" stroke="#ffe600" stroke-width="1" opacity="0.6"/>
</svg>
